<?xml version="1.0" encoding="utf-8"?>
<!-- Generator: Adobe Illustrator 23.0.1, SVG Export Plug-In . SVG Version: 6.00 Build 0)  -->
<svg version="1.1" id="Layer_1" xmlns="http://www.w3.org/2000/svg" xmlns:xlink="http://www.w3.org/1999/xlink" x="0px" y="0px"
	 viewBox="0 0 595.28 841.89" style="enable-background:new 0 0 595.28 841.89;" xml:space="preserve">
<style type="text/css">
	.st0{fill:#151118;}
	.st1{fill:#25AC4B;}
	.st2{fill:#A54D9D;}
	.st3{fill:#A44D9C;}
</style>
<g>
	<path class="st0" d="M391.96,627.05c0,58.72-0.05,117.44,0.09,176.16c0.01,4.38-0.96,5.51-5.02,5.49
		c-52.98-0.16-105.97-0.16-158.95-0.01c-3.97,0.01-5.72-1-5.08-5.51c0.35-2.47,0.19-4.68-3.09-4.19c-1.43,0.21-1.98-0.81-1.94-2.31
		c0.04-1.41,0-2.83,0-4.24c0-113.37-0.03-226.75,0.1-340.12c0.01-5.02-0.69-6.71-5.84-6.68c-50.23,0.27-100.46,0.18-150.69,0.09
		c-1.76,0-3.9,1.3-5.34-1.84c-1.47-3.21,0.87-4.22,1.94-5.77C134.17,327.5,210.28,216.95,286.26,106.3
		c5.88-8.56,12.09-16.77,18.46-24.85c2.64-3.34,4.79-1.48,6.68,1.29c10.94,15.99,21.9,31.96,32.85,47.94
		c69.9,101.96,139.8,203.92,209.7,305.88c0.87,1.27,1.85,2.48,2.57,3.85c1.59,3.04,0.64,4.88-2.47,5.36
		c-1.11,0.17-2.27,0.03-3.4,0.03c-51.36,0-102.73,0.05-154.09-0.1c-3.85-0.01-4.7,1.12-4.69,5.19
		C392,509.61,391.96,568.33,391.96,627.05z"/>
	<path class="st1" d="M377.44,618.93c0,56.6-0.04,113.21,0.08,169.81c0.01,4.26-0.79,5.69-4.98,5.67
		c-48.45-0.17-96.91-0.18-145.36,0.01c-4.43,0.02-5.29-1.44-5.29-5.97c0.11-112.85,0.06-225.71,0.17-338.56
		c0.01-6.92-1.65-8.57-7.75-8.55c-49.1,0.16-98.2,0.09-147.3,0.07c-1.41,0-3.6,0.26-4.07-0.54c-1.03-1.77,1.03-3.03,1.91-4.31
		c74.72-108.94,149.49-217.83,224.25-326.73c2.43-3.53,5.15-6.87,7.21-10.65c2.41-4.45,3.91-4.49,6.77-0.22
		c17.8,26.51,35.82,52.85,53.77,79.24c58.59,86.11,117.19,172.22,175.76,258.35c0.92,1.35,2.9,2.75,2.01,4.35
		c-0.48,0.86-2.94,0.52-4.5,0.52c-48.45,0.02-96.91,0.1-145.36-0.09c-5.57-0.02-7.44,1.98-7.42,8.33
		C377.51,506.08,377.44,562.5,377.44,618.93z"/>
	<path class="st2" d="M546.08,441.44c-3.79,0.93-5.92-1.19-8.03-4.31C460.62,323.18,383.12,209.29,305.67,95.37
		c-0.98-1.44-3-2.76-1.8-4.98c0.97-1.79,2.16-3.98,3.73-4.65c1.26-0.53,2.12,2.15,3.02,3.47
		c79.36,115.69,158.68,231.41,237.97,347.15c0.93,1.35,3.02,2.76,2.32,4.28C550.04,442.52,547.66,440.83,546.08,441.44z"/>
	<path class="st3" d="M388.07,625.09c0,57.49-0.06,114.98,0.1,172.47c0.01,4.88-0.75,6.51-5.67,6.49
		c-49.75-0.23-99.5-0.14-149.25-0.14c-0.81,0-1.62,0.05-2.43-0.01c-1.5-0.12-3.39,0.56-3.48-2.31c-0.09-2.78,1.61-2.56,3.24-2.57
		c1.3-0.01,2.59-0.01,3.89-0.01c47.16,0,94.32-0.07,141.47,0.11c4.46,0.02,5.61-1.25,5.61-6.12
		c-0.13-113.74-0.11-227.48-0.03-341.22c0-1.97-1.52-5.03,1.51-5.86c3.17-0.87,5.16-0.32,5.15,4.58
		C388.01,508.7,388.07,566.89,388.07,625.09z"/>
</g>
</svg>
